# xmcd
#
# Track frame offsets: 
#        225
#        16580
#        34855
#        48602
#
# Disc length: 828 seconds
#
# Revision: 0
# Processed by: cddbd v1.4PL0 Copyright (c) Steve Scherf et al.
# Submitted via: ExactAudioCopy v0.95a4
#
DISCID=28033904
DTITLE=Francine Reed - Here Comes Frani Claus
DYEAR=2000
DGENRE=Blues
TTITLE0=Christmas Day
TTITLE1=Go Tell It On The Mountain
TTITLE2=Have Yourself A Merry Little Christmas
TTITLE3=Grandma's Cookin' Christmas
EXTD=
EXTT0=
EXTT1=
EXTT2=
EXTT3=
PLAYORDER=
